<svg width="25" height="25" viewBox="0 0 25 25" fill="none" xmlns="http://www.w3.org/2000/svg">
<path d="M8.74171 19.8248C8.74171 19.924 8.63042 20.0034 8.4901 20.0034C8.33042 20.0183 8.21913 19.9389 8.21913 19.8248C8.21913 19.7255 8.33042 19.6461 8.47075 19.6461C8.61591 19.6312 8.74171 19.7106 8.74171 19.8248ZM7.23688 19.6014C7.203 19.7007 7.29978 19.8148 7.44494 19.8446C7.57075 19.8942 7.71591 19.8446 7.74494 19.7454C7.77397 19.6461 7.68204 19.532 7.53687 19.4873C7.41107 19.4526 7.27075 19.5022 7.23688 19.6014ZM9.37558 19.5171C9.23526 19.5518 9.13849 19.6461 9.153 19.7603C9.16752 19.8595 9.29333 19.924 9.43849 19.8893C9.57881 19.8545 9.67558 19.7603 9.66107 19.661C9.64655 19.5667 9.51591 19.5022 9.37558 19.5171ZM12.5595 0.5C5.84817 0.5 0.714294 5.72573 0.714294 12.609C0.714294 18.1126 4.09171 22.8222 8.91591 24.4798C9.53526 24.5939 9.753 24.2019 9.753 23.8793C9.753 23.5716 9.73849 21.8744 9.73849 20.8322C9.73849 20.8322 6.35139 21.5766 5.6401 19.3533C5.6401 19.3533 5.08849 17.9092 4.29494 17.537C4.29494 17.537 3.18687 16.7578 4.37236 16.7727C4.37236 16.7727 5.5772 16.872 6.2401 18.0531C7.29978 19.9687 9.07558 19.4178 9.76752 19.0903C9.87881 18.2963 10.1933 17.7454 10.5417 17.4179C7.83687 17.1102 5.10784 16.7082 5.10784 11.9341C5.10784 10.5693 5.47558 9.88447 6.24978 9.01103C6.12397 8.68846 5.71268 7.35846 6.37558 5.64136C7.38687 5.31878 9.71429 6.98129 9.71429 6.98129C10.682 6.70338 11.7224 6.55946 12.753 6.55946C13.7836 6.55946 14.824 6.70338 15.7917 6.98129C15.7917 6.98129 18.1191 5.31382 19.1304 5.64136C19.7933 7.36342 19.382 8.68846 19.2562 9.01103C20.0304 9.88943 20.5046 10.5743 20.5046 11.9341C20.5046 16.7231 17.6546 17.1052 14.9498 17.4179C15.3949 17.8099 15.7724 18.5543 15.7724 19.7205C15.7724 21.393 15.7578 23.4624 15.7578 23.8694C15.7578 24.1919 15.9804 24.584 16.5949 24.4699C21.4336 22.8222 24.7143 18.1126 24.7143 12.609C24.7143 5.72573 19.2707 0.5 12.5595 0.5ZM5.41752 17.6164C5.35462 17.666 5.36913 17.7801 5.45139 17.8744C5.52881 17.9538 5.6401 17.9886 5.703 17.924C5.76591 17.8744 5.75139 17.7603 5.66913 17.666C5.59171 17.5866 5.48042 17.5518 5.41752 17.6164ZM4.89494 17.2144C4.86107 17.2789 4.90946 17.3583 5.00623 17.4079C5.08365 17.4576 5.18042 17.4427 5.21429 17.3732C5.24817 17.3087 5.19978 17.2293 5.103 17.1796C5.00623 17.1499 4.92881 17.1648 4.89494 17.2144ZM6.46268 18.9811C6.38526 19.0456 6.41429 19.1945 6.52558 19.2888C6.63687 19.4029 6.7772 19.4178 6.8401 19.3384C6.903 19.2739 6.87397 19.125 6.7772 19.0307C6.67075 18.9166 6.52558 18.9017 6.46268 18.9811ZM5.91107 18.2516C5.83365 18.3012 5.83365 18.4302 5.91107 18.5444C5.98849 18.6585 6.11913 18.7082 6.18204 18.6585C6.25946 18.594 6.25946 18.465 6.18204 18.3508C6.11429 18.2367 5.98849 18.1871 5.91107 18.2516Z" fill="#1A2F4B"/>
</svg>
